<svg xmlns="http://www.w3.org/2000/svg" width="512" height="512" viewBox="0 0 512 512">
  <defs>
    <linearGradient id="bg" x1="0" y1="0" x2="1" y2="1">
      <stop offset="0%" stop-color="#f5f0e8"/>
      <stop offset="100%" stop-color="#ede8dc"/>
    </linearGradient>
    <linearGradient id="acc" x1="0" y1="0" x2="1" y2="1">
      <stop offset="0%" stop-color="#3d5a80"/>
      <stop offset="100%" stop-color="#3d5a80"/>
    </linearGradient>
    <linearGradient id="acc2" x1="0" y1="0" x2="1" y2="1">
      <stop offset="0%" stop-color="#c75b4e"/>
      <stop offset="100%" stop-color="#c75b4e"/>
    </linearGradient>
  </defs>
  <!-- Background -->
  <rect width="512" height="512" rx="102" fill="url(#bg)"/>
  
  <!-- Grid lines suggestion -->
  <rect x="61" y="61" width="390" height="390" rx="20" fill="none" stroke="#c8bfa8" stroke-width="5"/>
  <rect x="67.0" y="67.0" width="66.0" height="66.0" rx="11" fill="url(#acc)"/>
  <rect x="145.0" y="67.0" width="66.0" height="66.0" rx="11" fill="url(#acc)"/>
  <rect x="223.0" y="67.0" width="66.0" height="66.0" rx="11" fill="url(#acc)"/>
  <rect x="301.0" y="67.0" width="66.0" height="66.0" rx="11" fill="url(#acc)"/>
  <rect x="67.0" y="145.0" width="66.0" height="66.0" rx="11" fill="url(#acc)"/>
  <rect x="301.0" y="145.0" width="66.0" height="66.0" rx="11" fill="url(#acc)"/>
  <rect x="67.0" y="223.0" width="66.0" height="66.0" rx="11" fill="url(#acc)"/>
  <rect x="145.0" y="223.0" width="66.0" height="66.0" rx="11" fill="url(#acc)"/>
  <rect x="223.0" y="223.0" width="66.0" height="66.0" rx="11" fill="url(#acc)"/>
  <rect x="301.0" y="223.0" width="66.0" height="66.0" rx="11" fill="url(#acc)"/>
  <rect x="67.0" y="301.0" width="66.0" height="66.0" rx="11" fill="url(#acc)"/>
  <rect x="67.0" y="379.0" width="66.0" height="66.0" rx="11" fill="url(#acc2)"/>
  <rect x="145.0" y="379.0" width="66.0" height="66.0" rx="11" fill="url(#acc2)"/>
  <rect x="223.0" y="379.0" width="66.0" height="66.0" rx="11" fill="url(#acc2)"/>
</svg>